{"title":"Super.8.2011.DVDSCR.XVID.AC3-BBRG","uid":6589160,"size":1772411262,"categoryP":"video","categoryS":"movies","magnet":"?xt=urn:btih:39d2ce774dbf468a40b8aa99c350c8a6eb8920d8&amp;dn=Super.8.2011.DVDSCR.XVID.AC3-BBRG&amp;tr=udp%3A%2F%2Ftracker.openbittorrent.com%3A80&amp;tr=udp%3A%2F%2Fopen.demonii.com%3A1337&amp;tr=udp%3A%2F%2Ftracker.coppersurfer.tk%3A6969&amp;tr=udp%3A%2F%2Fexodus.desync.com%3A6969","seeders":0,"leechers":1,"uploader":"sceneline","files":4,"time":1312747674,"description":"- &lt;a href=&quot;\nhttp://www.Speed.Cd&quot; rel=&quot;nofollow&quot; target=&quot;_NEW&quot;&gt;\nhttp://www.Speed.Cd&lt;/a&gt; \n       &lt;a href=&quot;\nhttp://www.Speed.Cd&quot; rel=&quot;nofollow&quot; target=&quot;_NEW&quot;&gt;\nhttp://www.Speed.Cd&lt;/a&gt;      fast  and The Hottest Private Tracker on the net\n\n(((--Registration will be open on june every weekend--)))\n\nPlease Seed back to make the speed Faster!!!\n\n------------------nfo--------------------------\n-\n ______ ______                         ______              ___________\n ___  /____  /___  ______________      ___  /________________  /___  /_____________________ ______________ _\n __  __ \\_  /_  / / /  _ \\_  ___/________  __ \\_  ___/  __ \\  __/_  __ \\  _ \\_  ___/_  ___/ __  ___/_  __ `/\n _  /_/ /  / / /_/ //  __/(__  )_/_____/  /_/ /  /   / /_/ / /_ _  / / /  __/  /   _(__  )___  /   _  /_/ /\n /_.___//_/  \\__,_/ \\___//____/        /_.___//_/    \\____/\\__/ /_/ /_/\\___//_/    /____/_(_)_/    _\\__, /\n                                                                                                   /____/\n                                     ___________                    ___________\n                              ______ ___  /__  /____  _____________ __  /__&lt;  /\n                              _  __ `/_  /__  /__  / / /  ___/  __ `/  __/_  /\n                              / /_/ /_  / _  / _  /_/ // /__ / /_/ // /_ _  /\n                              \\__,_/ /_/  /_/  _\\__, / \\___/ \\__,_/ \\__/ /_/\n                                               /____/\n\n\n\n\n\n\nGeneral\nRELEASE DATE 5/8/2011\nComplete name                    : Super.8.2011.DVDSCR.XVID.AC3-BBRG.avi\nFormat                           : AVI\nFormat/Info                      : Audio Video Interleave\nFile size                        : 1.65 GiB\nDuration                         : 1h 51mn\nOverall bit rate                 : 2 112 Kbps\nWriting library                  : VirtualDub build 30091/release\n\nVideo\nID                               : 0\nFormat                           : MPEG-4 Visual\nFormat profile                   : Advanced Simple@L5\nFormat settings, BVOP            : 2\nFormat settings, QPel            : No\nFormat settings, GMC             : No warppoints\nFormat settings, Matrix          : Default (H.263)\nMuxing mode                      : Packed bitstream\nCodec ID                         : XVID\nCodec ID/Hint                    : XviD\nDuration                         : 1h 51mn\nBit rate                         : 1 652 Kbps\nWidth                            : 720 pixels\nHeight                           : 304 pixels\nDisplay aspect ratio             : 2.35:1\nFrame rate                       : 29.970 fps\nColor space                      : YUV\nChroma subsampling               : 4:2:0\nBit depth                        : 8 bits\nScan type                        : Progressive\nCompression mode                 : Lossy\nBits/(Pixel*Frame)               : 0.252\nStream size                      : 1.29 GiB (78%)\nWriting library                  : XviD 1.2.1 (UTC 2008-12-04)\n\nAudio\nID                               : 1\nFormat                           : AC-3\nFormat/Info                      : Audio Coding 3\nMode extension                   : CM (complete main)\nCodec ID                         : 2000\nDuration                         : 1h 51mn\nBit rate mode                    : Constant\nBit rate                         : 448 Kbps\nChannel(s)                       : 2 channels\nChannel positions                : Front: L R\nSampling rate                    : 48.0 KHz\nBit depth                        : 16 bits\nCompression mode                 : Lossy\nStream size                      : 359 MiB (21%)\nAlignment                        : Aligned on interleaves\nInterleave, duration             : 33 ms (1.00 video frame)\nInterleave, preload duration     : 512 ms\n\nEncoder:allycat1","torrent":{"xt":"urn:btih:39d2ce774dbf468a40b8aa99c350c8a6eb8920d8","amp;dn":"Super.8.2011.DVDSCR.XVID.AC3-BBRG","amp;tr":["udp%3A%2F%2Ftracker.openbittorrent.com%3A80","udp%3A%2F%2Fopen.demonii.com%3A1337","udp%3A%2F%2Ftracker.coppersurfer.tk%3A6969","udp%3A%2F%2Fexodus.desync.com%3A6969"],"infoHash":"39d2ce774dbf468a40b8aa99c350c8a6eb8920d8","infoHashBuffer":{"type":"Buffer","data":[57,210,206,119,77,191,70,138,64,184,170,153,195,80,200,166,235,137,32,216]},"announce":[],"urlList":[]}}